<?xml version="1.0" standalone="no"?>
<!DOCTYPE svg PUBLIC "-//W3C//DTD SVG 20010904//EN"
 "http://www.w3.org/TR/2001/REC-SVG-20010904/DTD/svg10.dtd">
<svg version="1.0" xmlns="http://www.w3.org/2000/svg"
 width="512.000000pt" height="512.000000pt" viewBox="0 0 512.000000 512.000000"
 preserveAspectRatio="xMidYMid meet">

<g transform="translate(0.000000,512.000000) scale(0.100000,-0.100000)"
fill="#000000" stroke="none">
<path d="M2375 5114 c-321 -34 -578 -105 -840 -234 -609 -300 -1060 -860
-1225 -1520 -52 -208 -62 -299 -67 -647 l-5 -323 -30 0 c-69 0 -149 -58 -184
-135 -30 -64 -31 -126 0 -190 36 -79 88 -117 188 -139 l28 -6 0 -113 c1 -511
75 -888 222 -1127 59 -96 181 -228 278 -301 71 -53 236 -141 342 -183 198 -78
529 -143 868 -172 281 -24 977 -25 1228 -1 460 44 742 111 997 237 162 80 239
136 351 252 213 223 313 511 344 998 5 91 10 220 10 287 l0 123 28 6 c100 22
152 60 188 139 31 64 30 126 0 190 -35 77 -115 135 -184 135 l-30 0 -5 323
c-5 348 -15 439 -67 647 -102 410 -302 764 -603 1068 -358 363 -802 589 -1307
667 -101 15 -441 28 -525 19z m391 -155 c347 -33 698 -157 984 -346 431 -285
760 -730 894 -1209 67 -240 89 -439 84 -779 l-3 -230 -2165 0 -2165 0 -3 230
c-7 500 55 803 236 1159 214 421 557 757 987 967 359 175 756 247 1151 208z
m2174 -2739 c45 -45 33 -112 -25 -135 -52 -22 -4658 -22 -4710 0 -58 23 -70
90 -25 135 20 20 43 20 2380 20 2337 0 2360 0 2380 -20z m-4233 -367 l-67 -68
-67 68 -68 67 135 0 135 0 -68 -67z m640 0 l-67 -68 -67 68 -68 67 135 0 135
0 -68 -67z m640 0 l-67 -68 -67 68 -68 67 135 0 135 0 -68 -67z m640 0 l-67
-68 -67 68 -68 67 135 0 135 0 -68 -67z m653 2 c-35 -36 -69 -65 -75 -65 -6 0
-40 29 -75 65 l-64 65 139 0 139 0 -64 -65z m640 0 c-35 -36 -69 -65 -75 -65
-6 0 -40 29 -75 65 l-64 65 139 0 139 0 -64 -65z m640 0 c-35 -36 -69 -65 -75
-65 -6 0 -40 29 -75 65 l-64 65 139 0 139 0 -64 -65z m-3495 -285 l-105 -105
-107 107 -108 108 105 105 105 105 107 -107 108 -108 -105 -105z m643 3 l-108
-108 -105 105 -105 105 107 107 108 108 105 -105 105 -105 -107 -107z m640 0
l-108 -108 -105 105 -105 105 107 107 108 108 105 -105 105 -105 -107 -107z
m742 102 c0 -5 -46 -56 -102 -112 l-103 -103 -107 107 -108 108 107 107 108
108 102 -102 c57 -57 103 -107 103 -113z m543 -107 l-108 -108 -107 107 -108
108 107 107 108 108 107 -107 108 -108 -107 -107z m640 0 l-108 -108 -107 107
-108 108 107 107 108 108 107 -107 108 -108 -107 -107z m-3806 44 l-62 -63 -6
68 c-4 37 -7 97 -8 133 l-1 64 70 -69 70 -69 -63 -64z m4258 62 l-7 -126 -64
63 -64 63 67 68 c37 37 69 66 71 63 3 -2 1 -61 -3 -131z m-3982 -426 l-108
-108 -102 102 c-57 57 -103 107 -103 113 0 5 46 56 102 112 l103 103 107 -107
108 -108 -107 -107z m1285 5 l-108 -108 -105 105 -105 105 107 107 108 108
105 -105 105 -105 -107 -107z m742 102 c0 -5 -46 -56 -102 -112 l-103 -103
-107 107 -108 108 107 107 108 108 102 -102 c57 -57 103 -107 103 -113z m543
-107 l-108 -108 -107 107 -108 108 107 107 108 108 107 -107 108 -108 -107
-107z m640 0 l-108 -108 -107 107 -108 108 107 107 108 108 107 -107 108 -108
-107 -107z m640 0 l-108 -108 -107 107 -108 108 107 107 108 108 107 -107 108
-108 -107 -107z m-3205 209 l102 -102 -105 -105 -105 -105 -105 105 -105 105
102 102 c57 57 105 103 108 103 3 0 51 -46 108 -103z m1062 -422 c0 -5 -46
-56 -102 -112 l-103 -103 -107 107 -108 108 107 107 108 108 102 -102 c57 -57
103 -107 103 -113z m640 0 c0 -5 -46 -56 -102 -112 l-103 -103 -107 107 -108
108 107 107 108 108 102 -102 c57 -57 103 -107 103 -113z m543 -107 l-108
-108 -107 107 -108 108 107 107 108 108 107 -107 108 -108 -107 -107z m640 0
l-108 -108 -107 107 -108 108 107 107 108 108 107 -107 108 -108 -107 -107z
m-3205 209 l102 -102 -108 -108 -107 -107 -105 105 -105 105 105 105 c58 58
107 105 110 105 3 0 51 -46 108 -103z m640 0 l102 -102 -105 -105 -105 -105
-105 105 -105 105 102 102 c57 57 105 103 108 103 3 0 51 -46 108 -103z
m-1200 -125 c-13 -13 -24 -20 -25 -15 -1 4 -9 33 -18 63 l-15 54 40 -39 40
-39 -22 -24z m4142 33 c-7 -25 -15 -45 -18 -45 -3 0 -14 8 -24 17 -18 16 -17
18 14 50 17 18 34 31 36 28 3 -2 -1 -25 -8 -50z m-1880 -330 c0 -5 -46 -56
-102 -112 l-103 -103 -107 107 -108 108 107 107 108 108 102 -102 c57 -57 103
-107 103 -113z m543 -107 l-108 -108 -107 107 -108 108 107 107 108 108 107
-107 108 -108 -107 -107z m640 0 l-108 -108 -107 107 -108 108 107 107 108
108 107 -107 108 -108 -107 -107z m617 229 c0 -19 -82 -147 -126 -196 l-47
-52 -64 63 -63 63 107 107 107 108 43 -42 c24 -23 43 -46 43 -51z m-3822 -20
l102 -102 -63 -63 -64 -63 -47 52 c-26 29 -65 84 -88 122 l-40 69 43 44 c24
24 46 44 49 44 3 0 51 -46 108 -103z m640 0 l102 -102 -108 -108 -107 -107
-105 105 -105 105 105 105 c58 58 107 105 110 105 3 0 51 -46 108 -103z m642
-2 l105 -105 -105 -105 -105 -105 -107 107 -108 108 102 102 c57 57 105 103
108 103 3 0 52 -47 110 -105z m1627 -503 c-64 -64 -93 -85 -123 -92 l-39 -9
-93 92 -92 92 107 107 108 108 107 -107 108 -108 -83 -83z m601 166 c-29 -22
-205 -113 -236 -123 -17 -5 -30 -1 -48 16 l-25 23 108 108 108 108 57 -57 58
-58 -22 -17z m-3190 19 l103 -103 -25 -23 c-30 -28 -38 -26 -166 41 -149 77
-144 69 -80 133 30 30 57 55 60 55 3 0 52 -46 108 -103z m642 -2 l105 -105
-91 -91 -90 -90 -44 10 c-35 8 -59 25 -124 90 l-81 81 105 105 c58 58 107 105
110 105 3 0 52 -47 110 -105z m640 0 l105 -105 -105 -105 -105 -105 -107 107
-108 108 102 102 c57 57 105 103 108 103 3 0 52 -47 110 -105z m642 8 c54 -54
98 -102 98 -108 0 -5 -46 -56 -102 -112 l-103 -103 -107 107 -108 108 102 102
c57 57 107 103 113 103 5 0 54 -44 107 -97z m-1012 -279 l55 -55 -95 7 c-52 3
-99 9 -103 11 -8 5 71 93 83 93 3 0 30 -25 60 -56z m650 -9 l64 -65 -134 0
-134 0 64 65 c35 36 67 65 70 65 3 0 35 -29 70 -65z m629 21 c51 -52 52 -51
-84 -61 l-90 -7 55 56 c30 31 59 56 65 56 6 0 30 -20 54 -44z"/>
</g>
</svg>
