<svg xmlns="http://www.w3.org/2000/svg" viewBox="0 0 400 500"><g id="Layer_1" data-name="Layer 1"><path d="M428.852,213.738a2.475,2.475,0,0,0-2.159-1.238c-3.9-.054-7.044-2.091-10.169-4.217-2.437-1.657-4.974-3.139-7.483-4.673q-5.624-4.544-10.8-9.647c-3.391-3.332-6.733-6.721-10.4-9.757a92.66,92.66,0,0,0-10.554-7.562c-14.924-9.185-31.956-14.269-48.77-18.736-4.681-1.243-9.411-2.351-14.051-3.746-4.466-1.342-8.923-3.1-12.455-6.233-.016-.014-.035-.023-.051-.037a2.275,2.275,0,0,0-.339-.451,2.558,2.558,0,0,0-3.536,0C281.5,161,268.724,179.4,263.546,200.33a61.765,61.765,0,0,0,.294,30.753,75.92,75.92,0,0,0,13.826,27.247,83.124,83.124,0,0,0,22.63,20.007,90.718,90.718,0,0,0,68.849,9.181,91.239,91.239,0,0,0,27.709-12.045A69.824,69.824,0,0,0,418.068,253.6a13.828,13.828,0,0,0,1.654-3.682c.334-1.28.494-2.6.865-3.872a5.2,5.2,0,0,0,.236-.7c.1-.12.2-.24.281-.337.444-.565.848-1.149,1.248-1.745a20.413,20.413,0,0,0,2.053-3.2c1.168-2.681,2.332-5.4,3.306-8.158a45.693,45.693,0,0,0,2.529-8.78A16.011,16.011,0,0,0,428.852,213.738Zm-62.893-32.271a2.537,2.537,0,0,0,.421-.325,67.548,67.548,0,0,1,13.64,8.167c4.824,3.648,9.012,8.032,13.46,12.109a28.96,28.96,0,0,0,7.248,4.98c2.874,1.359,6.225,2.378,8.662,4.572,3.123,2.813,1.213,6.954-.95,9.7a13.94,13.94,0,0,1-3.834,3.531c-1.7.992-4.274,2.825-6.279,1.6-1.617-.988-1.645-3.434-2.356-5a95.624,95.624,0,0,0-13.433-21c-5.229-6.371-10.985-12.275-16.612-18.291A.244.244,0,0,1,365.959,181.467ZM370,253.352a8.744,8.744,0,0,1-1.452-3.639,2.237,2.237,0,0,0-.187-.522q-2.778-16.6-5.158-33.272c-.031-.854-.056-1.712-.084-2.583-.171-5.4-.578-10.8-.789-16.2-.1-2.591.064-5.256-.245-7.83a17.227,17.227,0,0,0-.958-3.805,2.965,2.965,0,0,0,.36-.554,1.906,1.906,0,0,0,.33-.156,1.4,1.4,0,0,0,.206-.15c9.563,10.235,19.686,20.2,26.556,32.527a74.975,74.975,0,0,1,4.559,9.668,31.215,31.215,0,0,1,2.443,10.561c.1,6.843-4.827,11.608-10.645,14.4a26.453,26.453,0,0,1-12.176,2.757A3.639,3.639,0,0,1,370,253.352Zm-32.578-18.006c1.119-4.5,1.771-9.088,2.643-13.636a239.183,239.183,0,0,1,10.069-28.793c.461-1.058,3.554-3.045,4.666-2.193,1.017.779.938,7.039,1.117,8.418.714,5.5,2.086,11.237,2.278,16.773a57.2,57.2,0,0,0,.585,6.189c.621,4.346,1.229,8.695,1.705,13.06s.826,8.743.939,13.132q.084,3.266-.013,6.532a15.586,15.586,0,0,1-.72,5.565c-2.341,5.669-8.58,8.185-14.229,8.548a18.272,18.272,0,0,1-8.195-.964c-3.3-1.425-4.21-4.864-4.728-8.184C332.239,251.491,335.446,243.272,337.417,235.346Zm-8.14,6.579c-1.532,5.606-3.107,11.2-4.8,16.76a7.348,7.348,0,0,1-7.454,1.947,24.267,24.267,0,0,1-8.761-4.749c-5.646-4.46-10.746-11.567-8.532-19.094a52.354,52.354,0,0,1,14.85-23.312c7.693-7.151,15.371-14.322,22.922-21.624,1.4-1.354,3.011-2.85,4.605-4.128s3.775-3.762,5.575-2.227a127.709,127.709,0,0,0-11.439,30.192c-.366,1.539-.681,3.087-.974,4.639C333.172,227.5,331.244,234.732,329.277,241.925Zm18.476-67.637a4.352,4.352,0,0,0,.405-1.134c.021-.133.043-.27.063-.406l13.887,3.979a3.165,3.165,0,0,0-.352.3,5.067,5.067,0,0,0-.514.652,3.224,3.224,0,0,0-.408.892,2.863,2.863,0,0,0-1.129,1.171c-.043.01-.089.006-.131.018a3.277,3.277,0,0,0-.693.293c-.019.011-.037.024-.056.037l-.506.391-.03.024a.823.823,0,0,0-.083.084c-.039.047-.073.1-.112.146a2.281,2.281,0,0,0-1.021-.229,2.525,2.525,0,0,0-1.768.733c-.025.027-.042.057-.066.085a2.387,2.387,0,0,0-1.114-.673,2.7,2.7,0,0,0-1.608.1,2.552,2.552,0,0,0-1.687-.153,2.479,2.479,0,0,0-.525.225c-.13-.1-.262-.207-.4-.3a2.68,2.68,0,0,0-1.807-2.014,2.767,2.767,0,0,0-1.6-1.073,2.871,2.871,0,0,0-.346-1.414A4.392,4.392,0,0,0,347.753,174.288Zm-9.56,9.876a146.486,146.486,0,0,0-23.312,19.917,175.789,175.789,0,0,1-12.791,12.79,43.671,43.671,0,0,1-4.684,3.935c-1.276.83-2.777,1.444-4.151.53-.036-.023-.071-.034-.106-.056a17.989,17.989,0,0,1-3.9-6.7c-.287-1.423-.532-2.854-.745-4.29-.758-5.105,2.105-11.756,6.649-14.349a102.445,102.445,0,0,1,9.785-4.4c3.733-1.631,7.583-3.654,11.489-4.818q7.493-2.232,15.076-4.145c3.6-.9,7.222-1.734,10.85-2.524Q340.285,182.119,338.193,184.164Zm-40.1-19.116c7.277-8.3,20.705-1.2,29.148,1.07,2.618.7,5.282,1.243,7.909,1.921,1.747.451,5.872.43,6.557,2.435.2.6-4.512,1.009-4.766,1.068-2.157.5-4.293,1.082-6.408,1.733-4.245,1.308-8.4,2.887-12.509,4.571-4.189,1.718-8.351,3.5-12.572,5.141-2.157.837-4.329,1.636-6.522,2.371q-1.508.505-3.028.969a11.382,11.382,0,0,1-2.706.3c-1.6.091-2.892.2-3.476-1.5a6.674,6.674,0,0,1-.25-2.816,37.691,37.691,0,0,1,3.287-8.489A42.32,42.32,0,0,1,298.1,165.048ZM424.9,224.433a54.992,54.992,0,0,1-2.684,7.968c-.961,2.247-1.664,4.916-3.132,6.845-.681.9-1.244,1.881-1.947,2.757a8.911,8.911,0,0,0-1.655,3.85,26.4,26.4,0,0,1-.8,3.468,17.494,17.494,0,0,1-1.852,3.219,58.5,58.5,0,0,1-4.182,5.752A65.96,65.96,0,0,1,398.3,268.319a80.806,80.806,0,0,1-24.916,12.77,89.4,89.4,0,0,1-31.354,4.463,88.119,88.119,0,0,1-34.076-8.711,76.27,76.27,0,0,1-22.66-17.2c-12.6-13.779-20.808-32.98-18.2-51.885,1.354-9.8,5.208-19.533,10.041-28.111a97.385,97.385,0,0,1,13.907-18.814c-6.993,11.844-11.9,25-11.81,38.874a86.483,86.483,0,0,0,16.528,50.288c9.816,13.244,24.5,22.392,41.01,24.129a73.939,73.939,0,0,0,50-13.247c14.034-10.108,23.159-25.063,31.154-40.073.81-1.52,1.609-3.047,2.409-4.573.029-.019.056-.04.084-.06a17.8,17.8,0,0,0,4.55,1.212A12.712,12.712,0,0,1,424.9,224.433Z"/><path d="M232.452,161.842a55.823,55.823,0,0,0-18.794-21.986c-8.553-5.944-18.428-10.128-28.034-14.044a111.634,111.634,0,0,0-23.974-6.66c-8.047-1.33-16.907-2.578-25.066-2.012a64.058,64.058,0,0,0-13.317,2.43c-12.232,3.535-23.433,10-33.723,17.388A85.1,85.1,0,0,0,70.3,155.775a69.35,69.35,0,0,0-5.069,8.059,71.281,71.281,0,0,0-6.527,17.195c-4.758,20-1.929,41.6,5.742,60.511C71.695,259.4,83.3,275.706,98.5,287.669a85.985,85.985,0,0,0,25.741,14.267,66.063,66.063,0,0,0,29.976,2.717,93.432,93.432,0,0,0,29.61-9.768,130.07,130.07,0,0,0,25.23-16.708,72.479,72.479,0,0,0,17.976-22.486c4.929-9.828,7-20.784,9.163-31.475C240.394,203.478,241.752,181.454,232.452,161.842Zm-.384,45.479a216.761,216.761,0,0,1-6.275,31.837c-2.384,9.093-5.96,17.5-12.049,24.752a92.959,92.959,0,0,1-20.515,17.629,114.435,114.435,0,0,1-25.818,13.01,67.831,67.831,0,0,1-28.793,3.674,64.646,64.646,0,0,1-24.894-8.4c-15.7-8.9-28.39-22.828-37.128-38.507-9.7-17.4-14.834-38.064-13.031-57.988a73.772,73.772,0,0,1,3.218-16.053,68.712,68.712,0,0,1,2.918-7.43c1.83-4,4.709-7.278,7.369-10.728a89.523,89.523,0,0,1,10.053-11,22.525,22.525,0,0,1,4.817-3.244c4.262-2.262,7.186-6.278,11.345-8.682q3.681-2.127,7.553-3.9a87.473,87.473,0,0,1,37.6-7.705c17.364.277,33.434,6.333,48.962,13.835,8.337,4.028,16.347,8.805,22.367,15.974C231.961,168.919,234,189.163,232.068,207.321Z"/><path d="M205.633,156.051a62.023,62.023,0,0,0-15.156-11.678c-7.851-4.166-16.629-6.62-25.342-8.189-17.364-3.125-35.631-2.4-52.34,3.538a89.715,89.715,0,0,0-22.173,11.526,82.334,82.334,0,0,0-9.5,7.92c-5.145,5-10.206,10.556-12.589,17.458a48.758,48.758,0,0,0-2.373,17.114,3.5,3.5,0,0,0-.2,1.123,93.542,93.542,0,0,0,2.09,20.479A154.261,154.261,0,0,0,73.869,234.5a110.659,110.659,0,0,0,8.215,18.377,177.589,177.589,0,0,0,11.133,16.386c3.229,4.373,6.5,8.71,11.026,11.557a48.589,48.589,0,0,0,18.124,9.365c8.316,2.269,17.092,2.7,25.673,2.749a61.545,61.545,0,0,0,22.367-3.643c9.347-2.987,18.486-6.8,25.794-13.5,1.533-1.406,2.984-2.734,4.635-4.014,8.038-6.233,13.68-16.5,17.609-25.676a124.12,124.12,0,0,0,9.216-32.67c.667-5.159.095-10.522.35-15.777a34.149,34.149,0,0,0-2.95-15.015,66.469,66.469,0,0,0-6.85-12.795A70.189,70.189,0,0,0,205.633,156.051Zm-16.981,3.434c1.6-1.412,3.366-1.374,5.345-.808a24.756,24.756,0,0,1,5.587,2.311,2.176,2.176,0,0,0,.673.5c.172.075.333.165.5.253a11.056,11.056,0,0,1,1.373,1.169c.019.023.04.045.059.068a20.336,20.336,0,0,1,1.934,3.488,3.326,3.326,0,0,0,.274.631c.35.819.682,1.646,1.014,2.46a13.254,13.254,0,0,1-1.286,6.208c-2.377,5.113-7.162,8.45-11.922,11.154-5.679,3.226-11.652,5.994-17.618,8.642a59.074,59.074,0,0,1-9.84,3.509,26.69,26.69,0,0,1-5.179.792c-.679.031-1.839.151-2.873.1.09-.3.183-.581.247-.79a15.649,15.649,0,0,1,1.357-3.048,48.151,48.151,0,0,1,4.144-5.973q4.992-6.4,10.2-12.627,5.316-6.35,10.854-12.507A66.211,66.211,0,0,1,188.652,159.485Zm-33.3,16.447c.18-3.291.24-6.595.683-9.866.457-3.376,1.2-6.714,1.929-10.039.517-2.346.97-4.88,2.278-6.938,1.269-2,3.207-2.374,5.478-2.445a28.143,28.143,0,0,1,3.957.168c.444.153.884.311,1.313.475a40.164,40.164,0,0,1,6.279,2.89c1.523.905,2.9,2.1,2.744,4.027-.187,2.3-1.656,4.414-2.968,6.236a69.791,69.791,0,0,1-5.161,6.039q-5.841,6.418-11.823,12.706-2.808,2.95-5.653,5.865C154.857,182.027,155.188,178.986,155.354,175.932Zm-26.213-27.321c1.773-3.521,8.729-3.921,11.964-3.955a10.422,10.422,0,0,1,6.572,1.762c.977.772.961,1.4.9,2.594-.089,1.641-.264,3.28-.4,4.918q-.823,10.11-1.645,20.219c-.263,3.236-.482,6.479-.808,9.71a31.765,31.765,0,0,1-.637,4.021c-.034.147-.086.289-.123.435-.28-.513-.546-1.02-.806-1.487-1.061-1.914-2.011-3.887-2.951-5.862q-3.171-6.665-6.329-13.335c-1.4-2.98-2.779-5.978-3.979-9.047-1.079-2.757-2.941-6.363-1.991-9.4A3.8,3.8,0,0,1,129.141,148.611Zm-25.359,5.868c2.545-2.057,5.942-4.587,9.393-3.453,3.227,1.061,6.013,4.182,8.027,6.793a44.371,44.371,0,0,1,5.484,9.671c3.33,7.806,5,16.188,7.65,24.236-6.606-4.053-13.037-8.385-19.239-13.034-5.781-4.335-12.751-9.462-15.559-16.4C98.116,158.776,101.314,156.473,103.782,154.479ZM89.7,165.467l.013.03a.339.339,0,0,1-.02-.028ZM80.565,176.33a3.434,3.434,0,0,0,.627-.5,17.715,17.715,0,0,1,5.227-4.2c1.981-.865,3.435-.157,5.129,1,4.768,3.257,9.37,6.788,14.044,10.179a140.447,140.447,0,0,0,13.641,9.321c.919.514,1.854,1.006,2.786,1.5-3.089-.042-6.179-.029-9.269.057-6.79.188-13.538,1.082-20.318,1.282-4.963.146-10.941-.637-13.6-5.436a10.592,10.592,0,0,1-1.254-4.149A23.7,23.7,0,0,1,80.565,176.33Zm.528,45a12.044,12.044,0,0,1-3.694-5.941,11.8,11.8,0,0,1,1.4-9.376c6.86-4.411,16.046-4.172,24.01-3.982q11.8.284,23.541,1.664c-7.623,3.276-15.657,5.661-23.169,9.21-5.2,2.458-9.83,6.107-15.144,8.3C85.657,222.191,83.231,223.171,81.093,221.33Zm21.728,32.092c-3,1.657-7.331,2.037-9.448-1.163-2.572-3.888-4.66-9.224-4.541-13.923.106-4.206,2.752-7.344,6.134-9.554,4.028-2.631,8.607-4.407,13-6.327,8.539-3.733,17.343-7.311,26.459-9.468-.991,1.336-1.931,2.713-2.865,4.071-3.058,4.442-5.989,8.969-9.007,13.438-2.9,4.3-5.877,8.566-9.15,12.6C110.372,246.822,107.1,251.061,102.821,253.422Zm40.268-5.548a138.015,138.015,0,0,0-2.741,17.348c-.233,2.87-.181,5.732-.27,8.606-.066,2.14-.273,4.556-1.641,6.318-1.467,1.888-3.834,1.68-5.983,1.465-2.41-.241-4.849-.5-7.231-.951-4.287-.809-8.349-2.507-9.868-6.936-1.509-4.4-.556-9.113,1.418-13.21,2.47-5.128,5.966-9.781,9.249-14.408,6.881-9.7,14.227-19.051,21.948-28.092C147.7,228.129,145.176,237.991,143.089,247.874Zm8.29-37.043a3.237,3.237,0,0,0-.622-.895,3.568,3.568,0,0,0-3.9-.661,3.768,3.768,0,0,0-1.97-3.453A2.832,2.832,0,0,0,142.4,204.7c-1.435.188-2.857.418-4.271.674.363-.214.731-.417,1.09-.64,2.247-1.4,2.243-5.725-.811-6.207-.08-.013-.159-.023-.238-.036a4,4,0,0,0,.306-.485,3.254,3.254,0,0,0,1.387-.082,3.656,3.656,0,0,0,2.208-1.941,4.7,4.7,0,0,0,3.411,1.71,4.542,4.542,0,0,0,.571-.058,3.52,3.52,0,0,0,3.857,1.193,7.412,7.412,0,0,0,.219,4.966,4.353,4.353,0,0,0,1.9,1.9,3.3,3.3,0,0,0-.084,1.351,2.867,2.867,0,0,0-.525,3.794Zm16.746,59.561c-.13,1.738-.244,3.8-1.35,5.23a12.985,12.985,0,0,1-4.783,3.282c-3.493,1.611-6.862,1.208-8.95-2.218-2.2-3.618-1.759-8.1-1.114-12.1.857-5.32,1.754-10.623,2.461-15.967q1.686-12.751,2.366-25.6C163.89,237.819,169.363,253.807,168.125,270.392Zm31.6-25.015a60.486,60.486,0,0,1-4.833,9.467c-1.607,2.622-3.6,5.263-6.438,6.635-2.188,1.059-5.143,1.475-7.236-.018-2.454-1.752-3.393-5.507-4.342-8.193-2.555-7.238-4.453-14.688-7.023-21.92a88.576,88.576,0,0,0-5.2-12.061c-.427-.8-.881-1.588-1.336-2.373a73.6,73.6,0,0,0,17.593,7.673c6.292,1.669,18.277,3.688,20.116,11.306C201.8,239.074,200.887,242.407,199.73,245.377Zm16.661-42.368a17.113,17.113,0,0,1-5.7,9.863,28.178,28.178,0,0,1-11.248,6.312,17.408,17.408,0,0,1-12.706-1.361c-4.966-2.409-9.663-5.345-14.637-7.756-2.174-1.054-4.375-2.052-6.591-3.015a145.184,145.184,0,0,0,22.631-6.8c4.685-1.841,9.245-3.932,13.75-6.172,3.516-1.748,7.269-3.248,10.8-.729A9.911,9.911,0,0,1,216.391,203.009Z"/><path d="M317.243,310.73a21.122,21.122,0,0,0-3.419.668c-20.607.136-39.561,9.948-57.883,18.472-21.215,9.871-42.448,19.72-63.283,30.379-11.841,6.058-23.545,12.383-35.044,19.067a3.776,3.776,0,0,0-1.588,1.7c-4.062,1.832-3.754,6.886-1.783,10.541a82.125,82.125,0,0,0,85.642,42.266c9.842-1.6,19.216-5.277,28.38-9.1A104.332,104.332,0,0,0,294.158,409.2c15.023-12.217,27.285-28.488,32.04-47.479,2.376-9.49,2.836-19.336,2.849-29.08q0-3.786-.052-7.572a28.014,28.014,0,0,0-.749-7.962C326.732,312.188,322.043,310.248,317.243,310.73Zm-61.76,27.684c6.537-3.25,13.176-6.3,19.768-9.436,6.118-2.909,12.324-6.3,19.025-7.63,5.552-1.105,12.011-.956,15.455,4.239,3.349,5.052,1.268,11.455-3.711,14.471-.01.006-.017.015-.027.021-.646,0-1.292.006-1.938,0a27.281,27.281,0,0,0-4.95-.881c-7.113-.624-14.26.413-21.317,1.562q-10.972.584-21.91,1.651-4.635.461-9.26,1.015A79.894,79.894,0,0,1,255.483,338.414ZM266.035,348.7c4.012-.622,8.032-1.328,12.062-1.962q9.453-.513,18.923-.667c2.016-.029,4.032-.029,6.048-.032a7.845,7.845,0,0,1,4.979,3.913c1.307,2.883.564,6.315-.408,9.185a21.175,21.175,0,0,1-2.74,6.023,2.826,2.826,0,0,0-1.758,1.6,4.839,4.839,0,0,1-.641.318c-3.4,1.338-7.491-.465-10.688-1.61l-2.506-.9a21.076,21.076,0,0,0-5.082-3.209c-6.544-2.877-14.044-2.409-20.9-4.139a89.91,89.91,0,0,1-15.421-5.711Zm17.134,25.119a40.993,40.993,0,0,1,5.286,3.543,18.176,18.176,0,0,1,4.446,4.415c1.18,1.962.144,4.465-.713,6.351-.058.127-.133.25-.194.376a18.448,18.448,0,0,1-4.327,2.56,63.921,63.921,0,0,0-10.806,6,.376.376,0,0,1-.031-.025,58.405,58.405,0,0,1-5.143-5.781q-3.035-3.509-6.044-7.04c-6.933-8.158-13.679-16.493-19.831-25.254C257.579,365.223,271.472,367.243,283.169,373.815ZM260.035,389.1c3.055,3.4,7.1,7.053,8.038,11.738a8.409,8.409,0,0,1-.342,5.064c-.8,1.8-2.55,2.846-4.249,3.681-3.514,1.727-7.711,2.872-11.605,1.827-3.92-1.051-6.668-4.434-8.492-7.88a60.085,60.085,0,0,1-5.087-14.019c-2.651-11.02-3.093-22.41-3.237-33.7.093.034.309.114.224.065a5.986,5.986,0,0,1,1.723,1.647,66.525,66.525,0,0,1,3.656,5.823q4.275,6.842,9.13,13.3T260.035,389.1Zm-25.863-42.432a2.928,2.928,0,0,0,.83,3.113,6.47,6.47,0,0,0-2.526.58,3.087,3.087,0,0,0-.88.593,3.163,3.163,0,0,0-2.178-.579,2.84,2.84,0,0,0-2.317,1.846,3.414,3.414,0,0,0-2.264-1.126Q229.5,348.866,234.172,346.663Zm-5.861,41.247q.37,8.616.74,17.233c.149,3.507.386,7.764-1.5,10.9-2.238,3.727-6.791,3.511-10.525,2.658a35.865,35.865,0,0,1-6.316-2.133,6.44,6.44,0,0,1-3.961-3.872c-1.346-4.286.777-9.48,2.1-13.524a137.7,137.7,0,0,1,5.244-13.52c.219-.486.454-.963.678-1.445q2.5-4.659,5.236-9.185c2.342-3.879,4.781-7.7,7.249-11.5Zm-52.79-3.86c1.364-.978,2.705-2,4.05-3.022a160.687,160.687,0,0,1,14.463-9.783A158.644,158.644,0,0,1,220,358.81c-3.842,9.514-11.422,17.406-14.779,27.186-1.7,4.941-1.943,11.059-5.219,15.319-3.522,4.579-9.662,2.584-13.617-.336A30.042,30.042,0,0,1,175.521,384.05Zm147.5-60.44q.056,3.391.078,6.783c.045,8.92-.261,17.918-1.984,26.693-3.345,17.036-13.5,32.112-26.248,43.618A96.586,96.586,0,0,1,273.245,415.9c-4.32,2.13-8.787,3.948-13.278,5.68-4.208,1.622-8.419,3.314-12.765,4.533a75.9,75.9,0,0,1-72.419-17.605,71.246,71.246,0,0,1-14.437-18.167,85.284,85.284,0,0,0,76.524,35.3,92.422,92.422,0,0,0,77.352-58.578,101.83,101.83,0,0,0,6.556-47.174c-.1-1.05-.23-2.1-.369-3.142a3.1,3.1,0,0,1,1.313.731C323.207,318.913,322.988,321.738,323.018,323.61Z"/></g></svg>